:SAMPLES-PER-SECOND 30
:FULLY-SPECIFIED
:DEGREES
193
root  1.33822 34.9722 0.126762 138.067 -87.5319 -136.986
RightUpLeg  -38.4707 -3.75135 10.8568
RightLeg  54.0817 -7.93582 -11.9494
RightFoot  -9.09437 0.0221697 -4.19065
RightToes  -1.16417e-010 0 -3.6325e-017
Spine  7.95598 -4.52077 -11.1752
Spine1  1.3462 -8.86875 17.1947
HEad  -24.9811 22.7785 -11.9668
LeftShoulder1  1.07552 -2.52056 -10.5626
LeftArm  -31.4494 -6.93646 -45.6609
LeftForeArm  129.421 -54.4651 -163.161
LeftHand  -0.608833 0.492392 14.4395
RightShoulder  2.01046 3.16515 24.048
RightArm  -20.4234 -19.5641 48.764
RightForeArm  -20.5728 40.3318 10.673
RightHand  -1.52493 5.28848 -16.768
LeftUpLeg  24.3228 -8.1822 -6.22383
LeftLeg  23.9008 3.15143 2.34397
LeftFoot  -25.7358 -0.479672 -5.31355
LeftToes  6.91183e-011 3.39355e-011 2.1261e-011
194
root  1.81055 36.4283 -0.173048 61.4558 -88.0916 -60.4266
RightUpLeg  -34.9426 -7.54587 10.7107
RightLeg  45.2416 -7.40066 -8.35159
RightFoot  -2.82613 0.0628861 -1.54955
RightToes  -1.16417e-010 0 -3.6325e-017
Spine  9.95712 -3.76434 -9.82621
Spine1  1.86478 -7.65768 14.8896
HEad  -24.9179 18.2847 -10.5724
LeftShoulder1  1.39929 -3.79725 -12.0695
LeftArm  -26.0255 -1.97738 -49.7068
LeftForeArm  112.77 -67.6546 -148.071
LeftHand  -0.630225 -1.32623 11.1618
RightShoulder  2.11173 3.63837 23.4236
RightArm  -13.1836 -13.5638 49.0936
RightForeArm  -21.3963 36.0415 9.2908
RightHand  -1.50137 6.74663 -14.6037
LeftUpLeg  17.6034 -8.44483 -2.94087
LeftLeg  30.8314 1.98047 1.57799
LeftFoot  -12.6718 -0.0370931 -8.15736
LeftToes  6.91183e-011 3.39355e-011 2.1261e-011
195
root  2.47743 38.219 -0.361753 34.4748 -85.659 -33.1884
RightUpLeg  -29.5042 -9.83637 10.0384
RightLeg  32.0442 -3.46796 -2.69778
RightFoot  5.6274 -0.734448 5.0127
RightToes  -1.16417e-010 0 -3.6325e-017
Spine  12.9124 -2.51997 -3.8459
Spine1  1.20947 -4.46185 7.77117
HEad  -23.6141 10.8738 -7.27969
LeftShoulder1  1.66062 -5.09778 -12.2307
LeftArm  -21.1346 0.515051 -54.8452
LeftForeArm  37.7798 -76.9388 -72.7903
LeftHand  -0.678602 -5.00257 7.91231
RightShoulder  2.07027 3.82157 22.0303
RightArm  -10.0547 -11.9536 50.9344
RightForeArm  -20.3228 36.1731 9.29236
RightHand  -1.37384 8.04411 -12.1824
LeftUpLeg  6.7892 -7.34063 0.282864
LeftLeg  40.9008 1.94861 2.28512
LeftFoot  5.75431 1.0491 -7.45084
LeftToes  6.91183e-011 3.39355e-011 2.1261e-011
196
root  3.03656 39.697 -0.495805 31.6161 -84.0034 -30.3295
RightUpLeg  -22.8259 -6.65409 7.79541
RightLeg  19.9529 1.10529 0.403064
RightFoot  10.7605 -2.14845 11.5695
RightToes  -1.16417e-010 0 -3.6325e-017
Spine  15.8943 -1.21626 3.81915
Spine1  0.752325 -0.374409 -1.69731
HEad  -22.0001 2.05906 -3.39205
LeftShoulder1  1.8534 -6.18653 -12.0123
LeftArm  -16.9533 -1.3385 -58.0239
LeftForeArm  -18.8606 -54.7904 -16.3849
LeftHand  -0.706384 -8.31414 6.29774
RightShoulder  2.0033 4.09034 20.0295
RightArm  -11.3052 -12.8585 52.8942
RightForeArm  -19.2873 39.5694 10.3268
RightHand  -1.17626 9.56399 -9.49155
LeftUpLeg  -4.36048 -6.53351 1.46515
LeftLeg  49.9433 3.85772 5.38672
LeftFoot  18.7884 1.33933 -5.34233
LeftToes  6.91183e-011 3.39355e-011 2.1261e-011
197
root  3.29664 40.7685 -0.732061 17.3019 -82.502 -16.6453
RightUpLeg  -16.431 1.90261 3.94238
RightLeg  15.0448 -0.385322 -0.263335
RightFoot  7.84645 -2.21365 13.2256
RightToes  -1.16417e-010 0 -3.6325e-017
Spine  18.4142 -0.362596 7.72672
Spine1  1.13186 2.54748 -8.74245
HEad  -21.7692 -5.39068 0.175182
LeftShoulder1  2.04207 -6.59347 -13.24
LeftArm  -13.8242 -4.79962 -58.0619
LeftForeArm  -33.177 -31.4838 -8.18025
LeftHand  -0.655291 -8.29364 5.9168
RightShoulder  2.04402 4.71703 18.3631
RightArm  -14.2702 -14.3978 53.0713
RightForeArm  -17.9068 47.0992 13.2122
RightHand  -0.969779 10.6171 -7.40009
LeftUpLeg  -13.6738 -6.35506 0.433887
LeftLeg  55.6967 5.03932 8.33973
LeftFoot  21.2782 1.26889 -4.77911
LeftToes  6.91183e-011 3.39355e-011 2.1261e-011
198
root  3.33763 41.5214 -1.07486 0.0138958 -79.7754 -0.408015
RightUpLeg  -11.2575 5.73637 1.59198
RightLeg  19.2467 -4.48363 -2.09685
RightFoot  2.09691 -1.11395 9.536
RightToes  -1.16417e-010 0 -3.6325e-017
Spine  20.3644 -0.276639 7.85982
Spine1  2.54441 3.70008 -12.6887
HEad  -23.6996 -10.3959 3.74606
LeftShoulder1  2.34191 -6.5593 -16.5642
LeftArm  -16.7546 -5.42496 -54.5735
LeftForeArm  -44.4317 -20.0108 -6.67789
LeftHand  -0.4157 -7.33404 4.15522
RightShoulder  2.16215 5.09994 18.6591
RightArm  -18.8038 -16.1251 51.1292
RightForeArm  -12.4718 59.896 21.503
RightHand  -0.78511 9.71696 -6.41247
LeftUpLeg  -20.3501 -7.21122 -2.17003
LeftLeg  55.8636 4.41118 7.52611
LeftFoot  17.9841 1.43738 -5.95235
LeftToes  6.91183e-011 3.39355e-011 2.1261e-011
199
root  3.18643 41.8139 -1.44098 -8.94647 -75.691 7.43243
RightUpLeg  -5.64687 2.33809 0.722121
RightLeg  26.4967 -6.75573 -3.86335
RightFoot  1.34044 -0.590281 5.52534
RightToes  -1.16417e-010 0 -3.6325e-017
Spine  20.7944 -0.740771 7.2707
Spine1  5.399 4.12156 -15.5713
HEad  -26.6061 -14.1619 7.94967
LeftShoulder1  2.79415 -6.82576 -20.6353
LeftArm  -24.0145 -2.23779 -49.2434
LeftForeArm  -51.4924 -21.033 -6.98639
LeftHand  -0.0468002 -7.17439 0.770436
RightShoulder  2.24098 4.80502 20.6551
RightArm  -25.3748 -18.374 48.7753
RightForeArm  9.13032 74.1764 48.8992
RightHand  -0.609365 7.35782 -5.89662
LeftUpLeg  -24.2628 -8.67627 -4.8849
LeftLeg  50.5107 2.54635 3.82214
LeftFoot  16.2532 2.00553 -8.51862
LeftToes  6.91183e-011 3.39355e-011 2.1261e-011
200
root  2.76003 41.6224 -1.79995 -8.89039 -70.9127 6.51893
RightUpLeg  1.56154 -2.29441 1.72534
RightLeg  28.9302 -9.42281 -5.78708
RightFoot  5.99665 -0.532823 3.75341
RightToes  -1.16417e-010 0 -3.6325e-017
Spine  18.6601 -1.00414 7.7892
Spine1  9.47305 4.77186 -17.3039
HEad  -28.3198 -18.1635 12.6131
LeftShoulder1  3.15487 -7.30587 -22.9305
LeftArm  -25.1053 2.12986 -46.0389
LeftForeArm  -58.0225 -27.721 -8.03821
LeftHand  0.326168 -6.25758 -2.92252
RightShoulder  2.24534 4.34558 22.3908
RightArm  -32.8431 -21.9118 46.6756
RightForeArm  70.3735 76.4735 118.44
RightHand  -0.51793 5.89251 -5.64691
LeftUpLeg  -25.9949 -9.98416 -6.22209
LeftLeg  42.8793 1.20173 1.54731
LeftFoot  20.0372 2.7655 -10.2776
LeftToes  6.91183e-011 3.39355e-011 2.1261e-011
201
root  2.01784 40.9873 -2.10902 -3.82128 -66.3907 1.32637
RightUpLeg  8.58017 -4.5544 5.45999
RightLeg  25.4236 -13.7106 -7.18955
RightFoot  8.36103 -0.472382 3.01709
RightToes  -1.16417e-010 0 -3.6325e-017
Spine  14.4958 -0.517259 9.13026
Spine1  12.6892 5.60569 -17.0166
HEad  -27.7886 -22.3398 16.4406
LeftShoulder1  3.17714 -7.4538 -22.715
LeftArm  -22.2639 6.47326 -46.0226
LeftForeArm  -61.4685 -33.1022 -9.57959
LeftHand  0.532173 -4.98075 -5.62784
RightShoulder  2.23143 4.10747 23.153
RightArm  -39.018 -26.6998 42.8975
RightForeArm  94.4614 66.8861 149.593
RightHand  -0.54682 5.80148 -5.98318
LeftUpLeg  -27.0544 -10.3315 -5.51615
LeftLeg  38.4948 1.61861 1.75056
LeftFoot  24.1877 3.20418 -10.4673
LeftToes  6.91183e-011 3.39355e-011 2.1261e-011
202
root  1.26482 39.9788 -2.26887 0.81956 -63.9276 -2.77243
RightUpLeg  13.2347 -3.94812 9.12167
RightLeg  20.4692 -15.0244 -6.5077
RightFoot  3.65458 -0.463019 3.84994
RightToes  -1.16417e-010 0 -3.6325e-017
Spine  10.6757 0.454731 10.2333
Spine1  13.5131 6.54602 -16.6154
HEad  -25.9094 -25.2315 17.8961
LeftShoulder1  3.04258 -7.40162 -21.5572
LeftArm  -19.5468 11.8182 -47.5017
LeftForeArm  -61.9539 -38.1508 -11.1893
LeftHand  0.607067 -4.30401 -6.9741
RightShoulder  2.20881 3.95174 23.4839
RightArm  -42.9597 -31.3209 36.5794
RightForeArm  100.072 57.9365 159.112
RightHand  -0.624095 5.87735 -6.74254
LeftUpLeg  -28.119 -9.68144 -3.94751
LeftLeg  39.7891 2.6992 2.78757
LeftFoot  20.8542 2.87071 -10.4068
LeftToes  6.91183e-011 3.39355e-011 2.1261e-011
